<svg width="40" height="40" viewBox="0 0 40 40" fill="none" xmlns="http://www.w3.org/2000/svg">
<path d="M0 10C0 8.67392 0.526784 7.40215 1.46447 6.46447C2.40215 5.52678 3.67392 5 5 5H35C36.3261 5 37.5979 5.52678 38.5355 6.46447C39.4732 7.40215 40 8.67392 40 10V22.5H0V10ZM28.75 12.5C28.4185 12.5 28.1005 12.6317 27.8661 12.8661C27.6317 13.1005 27.5 13.4185 27.5 13.75V16.25C27.5 16.5815 27.6317 16.8995 27.8661 17.1339C28.1005 17.3683 28.4185 17.5 28.75 17.5H33.75C34.0815 17.5 34.3995 17.3683 34.6339 17.1339C34.8683 16.8995 35 16.5815 35 16.25V13.75C35 13.4185 34.8683 13.1005 34.6339 12.8661C34.3995 12.6317 34.0815 12.5 33.75 12.5H28.75ZM0 27.5V30C0 31.3261 0.526784 32.5979 1.46447 33.5355C2.40215 34.4732 3.67392 35 5 35H35C36.3261 35 37.5979 34.4732 38.5355 33.5355C39.4732 32.5979 40 31.3261 40 30V27.5H0Z" fill="black"/>
</svg>
