<svg width="360" height="196" viewBox="0 0 360 196" fill="none" xmlns="http://www.w3.org/2000/svg">
<path d="M331.401 68.8154C341.547 70.5191 347.617 74.2903 352.196 95.8661L359.44 134.798C362.047 147.467 353.739 152.09 343.379 152.09H318.497C318.497 131.097 298.76 114.019 274.398 114.019C250.035 114.019 230.275 131.097 230.275 152.09H123.941C123.941 131.097 104.192 114.019 79.8296 114.019C55.4559 114.019 35.7129 131.097 35.7129 152.09H15.097C7.8357 152.09 2.18164 147.352 2.18164 141.24V13.2195C2.18164 6.24505 8.56992 0.640625 16.4035 0.640625H283.37C293.516 0.640625 300.933 4.9797 304.599 12.5868L331.401 68.8204V68.8154ZM242.41 13.6877V66.8676H313.768L288.735 13.6877H242.404H242.41ZM178.573 60.0426V27.4124H140.706V60.0426H102.833V92.6778H140.706V125.303H178.573V92.6778H216.441V60.0426H178.573Z" fill="black"/>
<line x1="52.3125" y1="175.55" x2="1.28125" y2="175.55" stroke="black" stroke-linecap="round"/>
<line x1="87" y1="195.477" x2="1.28125" y2="195.477" stroke="black" stroke-linecap="round"/>
<line x1="254.656" y1="185.513" x2="168.938" y2="185.513" stroke="black" stroke-linecap="round"/>
<line x1="81.2188" y1="185.513" x2="1.28125" y2="185.513" stroke="black" stroke-linecap="round"/>
<line x1="248.875" y1="175.55" x2="168.938" y2="175.55" stroke="black" stroke-linecap="round"/>
</svg>
